<svg width="24" height="24" fill="rgba(84,96,122,.68)" xmlns="http://www.w3.org/2000/svg">
<path fill-rule="evenodd" d="M16 4c.439 0 .85 0 1.162.021.33.023.66.072.986.207a3 3 0 011.624 1.624c.135.326.184.656.207.986l.009.162H22v2h-2.012l-.01.162c-.022.33-.071.66-.206.986a3 3 0 01-1.624 1.624 3.073 3.073 0 01-.986.207C16.85 12 16.44 12 16 12c-.439 0-.85 0-1.162-.021a3.072 3.072 0 01-.986-.207 3 3 0 01-1.624-1.624 3.07 3.07 0 01-.207-.986A6.416 6.416 0 0112.012 9H2V7h10.012l.01-.162c.022-.33.071-.66.206-.986a3 3 0 011.624-1.624c.326-.135.656-.184.986-.207C15.15 4 15.56 4 16 4zm-1.026 2.017c-.228.015-.315.042-.357.06a1 1 0 00-.54.54c-.018.042-.045.129-.06.357C14 7.21 14 7.52 14 8s0 .79.017 1.026c.015.228.042.315.06.357a1 1 0 00.54.54c.042.018.129.045.357.06C15.21 10 15.52 10 16 10s.79 0 1.026-.017c.228-.015.315-.042.357-.06a1 1 0 00.54-.54c.018-.042.045-.129.06-.357C18 8.79 18 8.48 18 8s0-.79-.017-1.026c-.015-.228-.042-.315-.06-.357a1 1 0 00-.54-.54c-.042-.018-.129-.045-.357-.06A16.908 16.908 0 0016 6c-.48 0-.79 0-1.026.017zM4.012 15H2v2h2.012l.01.162c.022.33.071.66.206.986a3 3 0 001.624 1.624c.326.135.656.184.986.207C7.15 20 7.56 20 8 20c.439 0 .85 0 1.162-.021.33-.023.66-.072.986-.207a3 3 0 001.624-1.624c.135-.326.184-.656.207-.986l.009-.162H22v-2H11.988a6.928 6.928 0 00-.01-.162 3.072 3.072 0 00-.206-.986 3 3 0 00-1.624-1.624 3.07 3.07 0 00-.986-.207C8.85 12 8.44 12 8 12c-.439 0-.85 0-1.162.021a3.07 3.07 0 00-.986.207 3 3 0 00-1.624 1.624 3.069 3.069 0 00-.207.986 6.614 6.614 0 00-.009.162zm2.605-.924c.042-.017.129-.044.357-.06C7.21 14.002 7.52 14 8 14s.79 0 1.026.017c.228.015.315.042.357.06a1 1 0 01.54.54c.018.042.045.129.06.357C10 15.21 10 15.52 10 16s0 .79-.017 1.026c-.015.228-.042.315-.06.357a1 1 0 01-.54.54c-.042.018-.129.045-.357.06C8.79 18 8.48 18 8 18s-.79 0-1.026-.017c-.228-.015-.315-.042-.357-.06a1 1 0 01-.54-.54c-.018-.042-.045-.129-.06-.357A16.908 16.908 0 016 16c0-.48 0-.79.017-1.026.015-.228.042-.315.06-.357a1 1 0 01.54-.54z" clip-rule="evenodd"></path></svg>
