<svg xmlns="http://www.w3.org/2000/svg" width="16" height="16"><path d="M11.967 12.675l.626 1.389a.5.5 0 01-.205.638l-.775.448a.5.5 0 01-.656-.141l-.895-1.244a1.433 1.433 0 00-2.565.345l-.538 1.425a.5.5 0 01-.597.306l-.865-.231a.5.5 0 01-.364-.564l.248-1.512a1.433 1.433 0 00-2.058-1.57l-1.389.627a.5.5 0 01-.638-.205l-.448-.776a.5.5 0 01.141-.656l1.244-.894a1.433 1.433 0 00-.345-2.565L.463 6.958a.5.5 0 01-.306-.597l.232-.865a.5.5 0 01.563-.364l1.512.247a1.433 1.433 0 001.57-2.058l-.627-1.388a.5.5 0 01.206-.638l.775-.448a.5.5 0 01.656.141l.894 1.244a1.433 1.433 0 002.565-.345L9.04.46a.5.5 0 01.597-.306l.865.231a.5.5 0 01.364.564l-.247 1.512a1.433 1.433 0 002.058 1.57l1.388-.627a.5.5 0 01.639.205l.447.776a.5.5 0 01-.141.655l-1.244.895a1.432 1.432 0 00.345 2.565l1.425.538a.5.5 0 01.306.597l-.231.865a.5.5 0 01-.564.364l-1.512-.248a1.433 1.433 0 00-1.57 2.058zM7.172 11.09a3.2 3.2 0 101.656-6.182 3.2 3.2 0 00-1.656 6.182z"/></svg>